<?xml version="1.0" encoding="UTF-8" standalone="no"?>
<svg
   xmlns:dc="http://purl.org/dc/elements/1.1/"
   xmlns:cc="http://creativecommons.org/ns#"
   xmlns:rdf="http://www.w3.org/1999/02/22-rdf-syntax-ns#"
   xmlns:svg="http://www.w3.org/2000/svg"
   xmlns="http://www.w3.org/2000/svg"
   xmlns:sodipodi="http://sodipodi.sourceforge.net/DTD/sodipodi-0.dtd"
   xmlns:inkscape="http://www.inkscape.org/namespaces/inkscape"
   width="20"
   height="20"
   viewBox="0 0 20 20"
   version="1.1"
   id="svg4498"
   sodipodi:docname="lance.svg"
   inkscape:version="0.92.1 r15371">
  <metadata
     id="metadata4504">
    <rdf:RDF>
      <cc:Work
         rdf:about="">
        <dc:format>image/svg+xml</dc:format>
        <dc:type
           rdf:resource="http://purl.org/dc/dcmitype/StillImage" />
        <dc:title></dc:title>
      </cc:Work>
    </rdf:RDF>
  </metadata>
  <defs
     id="defs4502" />
  <sodipodi:namedview
     pagecolor="#ffffff"
     bordercolor="#666666"
     borderopacity="1"
     objecttolerance="10"
     gridtolerance="10"
     guidetolerance="10"
     inkscape:pageopacity="0"
     inkscape:pageshadow="2"
     inkscape:window-width="3440"
     inkscape:window-height="1387"
     id="namedview4500"
     showgrid="false"
     showguides="true"
     inkscape:guide-bbox="true"
     inkscape:zoom="23.6"
     inkscape:cx="27.832711"
     inkscape:cy="7.089588"
     inkscape:window-x="-8"
     inkscape:window-y="-8"
     inkscape:window-maximized="1"
     inkscape:current-layer="svg4498">
    <sodipodi:guide
       position="7.2808029,17.917367"
       orientation="0,1"
       id="guide5064"
       inkscape:locked="false" />
    <sodipodi:guide
       position="8.689024,2.0973506"
       orientation="0,1"
       id="guide5066"
       inkscape:locked="false" />
    <sodipodi:guide
       position="2.8763666,8.7789105"
       orientation="1,0"
       id="guide5068"
       inkscape:locked="false" />
    <sodipodi:guide
       position="17.108389,8.479289"
       orientation="1,0"
       id="guide5070"
       inkscape:locked="false" />
  </sodipodi:namedview>
  <path
     style="fill:#000000;stroke-width:0.99999994"
     d="m 9.9635062,2.082633 c -1.9355703,0.013138 -3.812507,0.978045 -4.941382,2.6997257 -0.872358,1.3304619 -1.175584,3.014793 -0.825967,4.5788921 0.306632,1.3717962 0.984476,2.4795652 3.3417441,5.4571592 0.4385681,0.553979 1.1685682,1.478815 1.621278,2.054101 0.4527089,0.575285 0.8309459,1.044182 0.8421987,1.044182 0.01125,0 0.369109,-0.441671 0.79531,-0.982866 0.426201,-0.541195 1.144668,-1.450613 1.59603,-2.021638 0.451362,-0.571025 0.994736,-1.269694 1.208294,-1.550945 1.747789,-2.301803 2.280176,-3.4622365 2.340844,-5.1127047 C 16.02881,5.8829378 14.712789,3.7034536 12.574864,2.6723523 11.735423,2.2674984 10.843311,2.0766637 9.9635062,2.082633 Z m 0.04869,3.3597784 a 2.6005705,2.6005705 0 0 1 2.600539,2.600537 2.6005705,2.6005705 0 0 1 -2.600537,2.6005366 2.6005705,2.6005705 0 0 1 -2.6005369,-2.6005366 2.6005705,2.6005705 0 0 1 2.6005369,-2.600537 z"
     id="path5072"
     inkscape:connector-curvature="0" />
</svg>
