<?xml version="1.0" encoding="UTF-8" standalone="no"?>
<svg
   xmlns:dc="http://purl.org/dc/elements/1.1/"
   xmlns:cc="http://creativecommons.org/ns#"
   xmlns:rdf="http://www.w3.org/1999/02/22-rdf-syntax-ns#"
   xmlns:svg="http://www.w3.org/2000/svg"
   xmlns="http://www.w3.org/2000/svg"
   xmlns:sodipodi="http://sodipodi.sourceforge.net/DTD/sodipodi-0.dtd"
   xmlns:inkscape="http://www.inkscape.org/namespaces/inkscape"
   width="20"
   height="20"
   viewBox="0 0 20 20"
   version="1.1"
   id="svg4498"
   sodipodi:docname="unLANCE.svg"
   inkscape:version="0.92.1 r15371">
  <metadata
     id="metadata4504">
    <rdf:RDF>
      <cc:Work
         rdf:about="">
        <dc:format>image/svg+xml</dc:format>
        <dc:type
           rdf:resource="http://purl.org/dc/dcmitype/StillImage" />
        <dc:title></dc:title>
      </cc:Work>
    </rdf:RDF>
  </metadata>
  <defs
     id="defs4502" />
  <sodipodi:namedview
     pagecolor="#ffffff"
     bordercolor="#666666"
     borderopacity="1"
     objecttolerance="10"
     gridtolerance="10"
     guidetolerance="10"
     inkscape:pageopacity="0"
     inkscape:pageshadow="2"
     inkscape:window-width="3440"
     inkscape:window-height="1387"
     id="namedview4500"
     showgrid="false"
     showguides="true"
     inkscape:guide-bbox="true"
     inkscape:zoom="8.34386"
     inkscape:cx="81.016661"
     inkscape:cy="-17.108558"
     inkscape:window-x="-8"
     inkscape:window-y="-8"
     inkscape:window-maximized="1"
     inkscape:current-layer="svg4498">
    <sodipodi:guide
       position="7.2808029,17.917367"
       orientation="0,1"
       id="guide5064"
       inkscape:locked="false" />
    <sodipodi:guide
       position="8.689024,2.0973506"
       orientation="0,1"
       id="guide5066"
       inkscape:locked="false" />
    <sodipodi:guide
       position="2.8763666,8.7789105"
       orientation="1,0"
       id="guide5068"
       inkscape:locked="false" />
    <sodipodi:guide
       position="17.108389,8.479289"
       orientation="1,0"
       id="guide5070"
       inkscape:locked="false" />
  </sodipodi:namedview>
  <path
     style="fill:#000000;stroke-width:0.99999994"
     d="M 9.9628906 2.0820312 C 8.0273203 2.0951693 6.1503594 3.0615224 5.0214844 4.7832031 C 4.1491264 6.113665 3.8456955 7.797229 4.1953125 9.3613281 C 4.5019445 10.733124 5.1798413 11.840765 7.5371094 14.818359 C 7.9756775 15.372338 8.7054933 16.297761 9.1582031 16.873047 C 9.610912 17.448332 9.9907003 17.916016 10.001953 17.916016 C 10.013203 17.916016 10.370674 17.474789 10.796875 16.933594 C 11.223076 16.392399 11.941216 15.483134 12.392578 14.912109 C 12.84394 14.341084 13.388004 13.642579 13.601562 13.361328 C 15.349352 11.059525 15.880738 9.8985151 15.941406 8.2480469 C 16.02836 5.8824454 14.712144 3.7029763 12.574219 2.671875 C 11.734778 2.2670211 10.842695 2.0760619 9.9628906 2.0820312 z M 7.8945312 4.7226562 L 10.009766 6.8378906 L 12.125 4.7226562 L 13.328125 5.9257812 L 11.212891 8.0410156 L 13.328125 10.15625 L 12.125 11.357422 L 10.009766 9.2421875 L 7.8945312 11.357422 L 6.6933594 10.15625 L 8.8085938 8.0410156 L 6.6933594 5.9257812 L 7.8945312 4.7226562 z "
     id="path5072" />
</svg>
